<?xml version="1.0" encoding="UTF-8" standalone="no"?>
<!-- Created with Inkscape (http://www.inkscape.org/) -->

<svg
   xmlns:dc="http://purl.org/dc/elements/1.1/"
   xmlns:cc="http://creativecommons.org/ns#"
   xmlns:rdf="http://www.w3.org/1999/02/22-rdf-syntax-ns#"
   xmlns:svg="http://www.w3.org/2000/svg"
   xmlns="http://www.w3.org/2000/svg"
   xmlns:sodipodi="http://sodipodi.sourceforge.net/DTD/sodipodi-0.dtd"
   xmlns:inkscape="http://www.inkscape.org/namespaces/inkscape"
   width="800"
   height="166"
   viewBox="0 0 211.66666 43.920835"
   version="1.1"
   id="svg19"
   inkscape:version="0.92.5 (2060ec1f9f, 2020-04-08)"
   sodipodi:docname="logo-text-i.svg">
  <defs
     id="defs13" />
  <sodipodi:namedview
     id="base"
     pagecolor="#ffffff"
     bordercolor="#666666"
     borderopacity="1.0"
     inkscape:pageopacity="0.0"
     inkscape:pageshadow="2"
     inkscape:zoom="1.4"
     inkscape:cx="401.25703"
     inkscape:cy="210.14187"
     inkscape:document-units="mm"
     inkscape:current-layer="layer1"
     showgrid="false"
     units="px"
     inkscape:window-width="1866"
     inkscape:window-height="1016"
     inkscape:window-x="0"
     inkscape:window-y="27"
     inkscape:window-maximized="1" />
  <metadata
     id="metadata16">
    <rdf:RDF>
      <cc:Work
         rdf:about="">
        <dc:format>image/svg+xml</dc:format>
        <dc:type
           rdf:resource="http://purl.org/dc/dcmitype/StillImage" />
        <dc:title></dc:title>
      </cc:Work>
    </rdf:RDF>
  </metadata>
  <g
     inkscape:label="Layer 1"
     inkscape:groupmode="layer"
     id="layer1"
     transform="translate(0,-253.07915)">
    <path
       style="fill:#ffffff;stroke-width:0.36797127"
       d="m 1.3000857,296.32226 c -0.80130729,-0.33002 -0.80479709,-0.36354 -0.2379483,-2.28408 0.3164128,-1.07202 2.4808476,-7.41351 4.8098544,-14.09218 2.3290104,-6.67869 4.6652542,-13.42636 5.1916592,-14.99484 l 0.957094,-2.85178 4.061587,0.006 c 2.233876,0.003 4.245561,0.12729 4.470414,0.27598 0.224856,0.14869 2.157618,5.81751 4.29502,12.59738 6.071115,19.25762 6.595804,21.02055 6.333896,21.28151 -0.322318,0.32113 -6.671829,0.31838 -6.992865,-0.003 -0.136149,-0.13631 -0.738093,-2.20614 -1.337643,-4.59964 -0.633874,-2.53049 -1.342433,-4.5443 -1.693021,-4.81176 -0.413486,-0.31545 -1.997082,-0.44629 -5.040237,-0.41643 -6.9311331,0.068 -6.3516532,-0.32954 -7.7140037,5.29205 l -1.1592803,4.78362 -2.5656453,0.0763 c -1.4111063,0.042 -2.9316002,-0.0745 -3.378881,-0.25868 z M 19.959934,281.15061 c 0,-0.93918 -4.194611,-14.63557 -4.48224,-14.63557 -0.165764,0 -0.301389,0.23913 -0.301389,0.53142 0,0.29228 -0.806463,3.14865 -1.792143,6.3475 -0.98568,3.19884 -1.909562,6.35425 -2.053079,7.012 l -0.260936,1.1959 h 4.444895 c 3.26481,0 4.444892,-0.1198 4.444892,-0.45125 z"
       id="path93"
       inkscape:connector-curvature="0" />
    <path
       style="fill:#ffffff;stroke-width:0.36797127"
       d="m 43.878066,281.76608 v -14.92261 l -3.981801,0.25196 c -5.223037,0.33049 -5.585453,0.14875 -5.585453,-2.80116 v -2.19489 h 12.69501 12.69501 v 2.63136 2.63136 l -4.783627,-0.21274 -4.783627,-0.21275 v 14.87603 14.87605 h -3.127756 -3.127756 z"
       id="path95"
       inkscape:connector-curvature="0" />
    <path
       style="fill:#ffffff;stroke-width:0.36797127"
       d="m 64.576452,296.42899 c -0.455363,-0.0877 -0.827931,-0.30227 -0.827931,-0.47681 0,-0.17455 1.67005,-5.17205 3.711226,-11.10555 2.041173,-5.9335 4.622146,-13.47897 5.735499,-16.76771 l 2.024277,-5.97954 4.107728,0.006 c 2.259259,0.003 4.285022,0.12729 4.501713,0.27598 0.287555,0.19732 9.276869,28.17382 10.682539,33.24615 0.182256,0.65767 -1.359114,1.05014 -4.153103,1.05749 -2.988811,0.008 -3.140774,-0.16922 -4.302723,-5.01376 -0.589606,-2.45823 -1.300965,-4.56641 -1.628222,-4.82542 -0.399902,-0.3165 -1.965198,-0.44639 -5.018493,-0.41643 -6.863543,0.0673 -6.424557,-0.18621 -7.569673,4.37212 -0.533834,2.12503 -1.08552,4.31905 -1.225953,4.87562 -0.248621,0.98521 -0.320714,1.01059 -2.732151,0.96181 -1.362233,-0.0275 -2.849361,-0.12187 -3.304733,-0.20958 z m 18.674546,-15.27441 c 0,-0.21822 -0.567328,-2.31809 -1.260729,-4.66638 -0.693404,-2.34828 -1.617141,-5.49023 -2.052741,-6.9821 -0.435599,-1.49187 -0.923988,-2.56818 -1.085299,-2.39182 -0.466196,0.50972 -3.424024,9.95629 -4.211704,13.45114 -0.19594,0.86932 -0.101441,1.00133 0.790228,1.10391 2.159257,0.24842 7.820245,-0.1242 7.820245,-0.51475 z"
       id="path97"
       inkscape:connector-curvature="0" />
    <path
       style="fill:#ffffff;stroke-width:0.36797127"
       d="m 101.00561,296.82279 -0.82793,-0.18529 v -21.54786 -21.54785 l 11.49912,0.18997 c 10.10564,0.16695 11.84693,0.28289 14.36946,0.95676 7.64235,2.04155 13.04555,6.85885 15.03332,13.40314 0.64995,2.13981 0.74082,3.18547 0.59295,6.82276 -0.20602,5.06776 -0.87964,7.15845 -3.63257,11.27443 -2.34697,3.50903 -5.0667,5.96328 -8.70719,7.85726 -4.62351,2.40541 -6.23373,2.6642 -17.56398,2.82285 -5.46437,0.0765 -10.3078,0.0557 -10.76318,-0.0462 z m 17.99478,-6.43931 c 6.88126,-1.04761 11.72037,-6.01501 12.39712,-12.72578 1.07,-10.61036 -5.06783,-17.16643 -16.68495,-17.82186 l -1.83985,-0.1038 -0.0959,15.70167 -0.0959,15.70166 1.93579,-0.1896 c 1.06468,-0.10429 3.03736,-0.35732 4.38375,-0.56229 z"
       id="path99"
       inkscape:connector-curvature="0" />
    <path
       style="fill:#ffffff;stroke-width:0.36797127"
       d="m 155.65892,296.51236 c -3.5168,-0.96805 -7.36977,-4.12655 -9.04889,-7.41789 -3.91148,-7.66712 -2.26831,-17.95593 3.76969,-23.60419 3.3398,-3.12421 5.46272,-3.87818 10.32926,-3.66849 5.0481,0.21752 7.29348,1.11795 10.31001,4.13448 3.44203,3.44201 4.82508,7.9267 4.52941,14.68698 -0.134,3.06371 -0.29691,3.70852 -1.64317,6.50342 -0.82195,1.70638 -2.25413,3.94325 -3.18263,4.97082 -3.65149,4.04104 -9.81564,5.83945 -15.06368,4.39487 z m 7.84519,-6.09722 c 6.09472,-3.10929 7.41685,-14.54375 2.37145,-20.50958 -1.87412,-2.21602 -4.85849,-3.24953 -7.47861,-2.58989 -1.86957,0.47069 -4.94725,3.08739 -5.95529,5.06332 -0.37799,0.74094 -0.89206,2.68491 -1.14235,4.31994 -0.53063,3.46633 -0.098,6.53153 1.31557,9.32109 1.02734,2.02735 3.79428,4.66934 5.22058,4.98483 0.56851,0.12575 1.19925,0.28916 1.40163,0.36312 0.67098,0.24523 2.88985,-0.25025 4.26702,-0.95283 z"
       id="path101"
       inkscape:connector-curvature="0" />
    <path
       style="fill:#ffffff;stroke-width:0.36797127"
       d="m 185.17907,279.9232 v -17.29466 h 3.30427 3.30427 l 0.71426,1.40011 c 0.39286,0.77005 2.63524,4.67387 4.98308,8.67515 2.34784,4.00128 5.19057,9.00119 6.31719,11.11092 1.12662,2.10974 2.13476,3.83588 2.24032,3.83588 0.1911,0 -0.0694,-10.86297 -0.48308,-20.14643 l -0.21727,-4.87563 h 2.98146 2.98146 v 17.29466 17.29465 h -1.79385 c -3.30572,0 -4.02793,-0.30643 -5.10118,-2.16442 -0.53986,-0.93461 -2.96362,-4.92823 -5.38612,-8.87472 -2.42251,-3.94649 -5.38336,-9.03829 -6.57966,-11.31511 -1.19631,-2.27683 -2.22406,-4.13968 -2.28389,-4.13968 -0.12796,0 0.1279,19.93677 0.30578,23.82614 l 0.122,2.66779 h -2.70452 -2.70452 z"
       id="path103"
       inkscape:connector-curvature="0" />
  </g>
</svg>
