<?xml version="1.0" encoding="UTF-8" standalone="no"?>
<!-- Created with Inkscape (http://www.inkscape.org/) -->

<svg
   xmlns:dc="http://purl.org/dc/elements/1.1/"
   xmlns:cc="http://creativecommons.org/ns#"
   xmlns:rdf="http://www.w3.org/1999/02/22-rdf-syntax-ns#"
   xmlns:svg="http://www.w3.org/2000/svg"
   xmlns="http://www.w3.org/2000/svg"
   xmlns:sodipodi="http://sodipodi.sourceforge.net/DTD/sodipodi-0.dtd"
   xmlns:inkscape="http://www.inkscape.org/namespaces/inkscape"
   width="800"
   height="166"
   viewBox="0 0 211.66666 43.920835"
   version="1.1"
   id="svg87"
   inkscape:version="0.92.5 (2060ec1f9f, 2020-04-08)"
   sodipodi:docname="logo-bird-i.svg">
  <defs
     id="defs81" />
  <sodipodi:namedview
     id="base"
     pagecolor="#ffffff"
     bordercolor="#666666"
     borderopacity="1.0"
     inkscape:pageopacity="0.0"
     inkscape:pageshadow="2"
     inkscape:zoom="1.4"
     inkscape:cx="405.0387"
     inkscape:cy="187.93043"
     inkscape:document-units="mm"
     inkscape:current-layer="layer1"
     showgrid="false"
     units="px"
     inkscape:window-width="1866"
     inkscape:window-height="1016"
     inkscape:window-x="0"
     inkscape:window-y="27"
     inkscape:window-maximized="1" />
  <metadata
     id="metadata84">
    <rdf:RDF>
      <cc:Work
         rdf:about="">
        <dc:format>image/svg+xml</dc:format>
        <dc:type
           rdf:resource="http://purl.org/dc/dcmitype/StillImage" />
        <dc:title></dc:title>
      </cc:Work>
    </rdf:RDF>
  </metadata>
  <g
     inkscape:label="Layer 1"
     inkscape:groupmode="layer"
     id="layer1"
     transform="translate(0,-253.07915)">
    <path
       style="fill:#ffffff;stroke-width:0.36797127"
       d="m 103.83186,290.85156 c -1.65432,-0.40575 -3.863697,-1.3322 -3.863697,-1.62014 0,-0.16922 0.673547,-1.60441 1.496767,-3.18932 1.5187,-2.92389 1.61379,-3.95132 0.40108,-4.33402 -0.33548,-0.10587 -2.100237,-0.35456 -3.921678,-0.55264 -1.821448,-0.19808 -5.712727,-0.68823 -8.647296,-1.08922 -2.934567,-0.40099 -11.462311,-1.32232 -18.950522,-2.04739 -7.488219,-0.72507 -14.608458,-1.54135 -15.822763,-1.81395 -4.664633,-1.04716 -8.010438,-1.70948 -16.190738,-3.20505 -7.558709,-1.38193 -9.289315,-1.57187 -16.190742,-1.77703 -4.250067,-0.12635 -7.479016,-0.34274 -7.175441,-0.48089 0.303579,-0.13815 1.523965,-0.60738 2.711975,-1.04273 1.188014,-0.43536 1.98227,-0.90142 1.76502,-1.03569 -0.217251,-0.13426 -1.768812,-0.13395 -3.44792,7.2e-4 -6.3402647,0.50846 -10.0270696,0.68858 -9.5352909,0.46585 0.279996,-0.12681 2.1718328,-0.66476 4.2040899,-1.19545 4.907558,-1.28152 5.311804,-2.0978 0.860008,-1.73658 -2.8786041,0.23356 -7.8385824,-0.0293 -7.4718784,-0.39603 0.118732,-0.11873 9.0944284,-1.59206 9.6990174,-1.59206 0.08498,0 0.05216,-0.16559 -0.07292,-0.36797 -0.12508,-0.2024 -1.666529,-0.3825 -3.42545,-0.40023 -4.0167786,-0.0405 -7.0326341,-0.42332 -6.4237204,-0.81542 0.249713,-0.16079 3.0304672,-0.39297 6.1794554,-0.51595 3.14899,-0.12298 5.594075,-0.33535 5.433516,-0.47194 -0.160554,-0.13659 -2.001623,-0.45176 -4.091272,-0.70037 -5.7936763,-0.68931 -6.200814,-1.18081 -0.760182,-0.91769 4.604946,0.22271 6.420469,0.0354 6.015051,-0.62058 -0.263957,-0.4271 1.333625,-0.42444 5.351959,0.009 1.720265,0.18551 8.095368,0.85104 14.166892,1.47896 17.320567,1.7913 23.53822,2.56704 28.223625,3.52129 5.36392,1.09244 17.688447,2.88422 25.31621,3.68053 5.657382,0.59062 12.550155,0.62185 13.111105,0.0594 0.16057,-0.16099 0.0776,-0.63588 -0.18431,-1.05531 -0.54295,-0.8694 -0.32673,-1.15726 1.26793,-1.68802 1.36486,-0.45428 1.84539,-0.22292 3.98877,1.92046 1.11874,1.11873 2.00958,1.65737 3.0248,1.82889 2.11359,0.35709 16.37211,-1.37707 31.59553,-3.84272 9.04788,-1.46544 10.62623,-1.63715 28.70176,-3.12247 8.70253,-0.71511 17.83684,-1.54663 20.29847,-1.84782 2.46163,-0.30119 5.02823,-0.52795 5.70355,-0.50391 1.1482,0.0409 1.11632,0.0707 -0.49168,0.45996 -2.74172,0.6637 -2.49513,0.96484 0.83028,1.01392 1.7034,0.0251 4.2562,0.15597 5.67289,0.29075 l 2.5758,0.24504 -2.20783,0.27668 c -4.10328,0.51421 -4.6498,0.64708 -4.50293,1.09478 0.0792,0.24137 0.62796,0.47265 1.21953,0.51395 0.59157,0.0413 2.89703,0.18597 5.12326,0.32148 4.91006,0.2989 4.26272,0.7334 -1.65004,1.10755 -2.25139,0.14246 -3.96026,0.39204 -3.7975,0.55463 0.16277,0.16258 2.11739,0.61742 4.34362,1.01074 3.84033,0.67849 3.944,0.71963 2.02384,0.80308 -1.11311,0.0484 -3.92809,0.19035 -6.25551,0.31551 l -4.23167,0.22757 4.23167,1.06392 c 3.83441,0.96404 6.72306,2.01158 5.65055,2.04911 -0.23153,0.008 -2.05299,-0.13849 -4.04768,-0.32576 -7.5374,-0.70764 -9.39608,-0.79965 -9.1828,-0.45456 0.11746,0.19006 0.59692,0.44177 1.06547,0.55937 1.29687,0.32549 4.38957,1.74729 4.20411,1.93274 -0.09,0.09 -2.18423,-0.0992 -4.65379,-0.42046 -4.01633,-0.52251 -4.67204,-0.52578 -6.2144,-0.031 -0.94837,0.30424 -3.29737,0.73357 -5.22002,0.95405 -1.92266,0.22048 -6.80747,0.9687 -10.85516,1.66271 -16.51657,2.83192 -30.46599,4.28876 -51.12793,5.33966 -7.88773,0.40118 -9.84343,0.87057 -10.06431,2.41554 -0.0599,0.41935 0.4782,1.98775 1.19591,3.48534 1.52381,3.17968 1.60376,3.87681 0.47697,4.15947 -1.25185,0.31404 -6.61425,0.59308 -7.45141,0.38776 z"
       id="path91"
       inkscape:connector-curvature="0" />
  </g>
</svg>
