<?xml version="1.0" encoding="UTF-8" standalone="no"?>
<svg
   xmlns:dc="http://purl.org/dc/elements/1.1/"
   xmlns:cc="http://creativecommons.org/ns#"
   xmlns:rdf="http://www.w3.org/1999/02/22-rdf-syntax-ns#"
   xmlns:svg="http://www.w3.org/2000/svg"
   xmlns="http://www.w3.org/2000/svg"
   viewBox="0 0 360 119.9999"
   id="svg33"
   height="119.9999"
   width="360"
   version="1.1">
  <metadata
     id="metadata39">
    <rdf:RDF>
      <cc:Work
         rdf:about="">
        <dc:format>image/svg+xml</dc:format>
        <dc:type
           rdf:resource="http://purl.org/dc/dcmitype/StillImage" />
      </cc:Work>
    </rdf:RDF>
  </metadata>
  <defs
     id="defs37" />
  <path
     id="path2"
     style="fill:#e30016;fill-rule:evenodd;stroke:#e30016;stroke-width:0.49970001;stroke-linecap:butt;stroke-linejoin:miter;stroke-dasharray:none"
     d="m 30.0761,117.6583 v -15.7877 h 2.7666 v 7.1845 h 0.0425 l 5.7038,-7.1845 h 3.4293 l -6.2966,7.8213 6.8173,7.9664 h -3.5455 l -6.1083,-7.1281 h -0.0425 v 7.1281 z m 19.3689,0 v -15.7877 h 2.7745 v 15.7877 z m 15.7576,0 h -2.7745 v -13.3699 h -4.8788 v -2.4178 h 12.5212 v 2.4178 h -4.8679 z m 18.2206,-13.6601 c -0.7515,0 -1.4487,0.1289 -2.0848,0.3909 -0.636,0.2579 -1.1792,0.6364 -1.634,1.1322 -0.4586,0.4955 -0.8131,1.1082 -1.0675,1.8374 -0.2583,0.7293 -0.3853,1.5634 -0.3853,2.4982 0,0.9311 0.1157,1.7491 0.3507,2.4543 0.2311,0.7052 0.5664,1.2934 1.0059,1.7648 0.4353,0.4714 0.9672,0.83 1.5953,1.0721 0.6281,0.2375 1.3412,0.3586 2.1388,0.3586 0.574,0 1.1559,-0.0444 1.7495,-0.1372 0.5973,-0.0887 1.1521,-0.2214 1.6723,-0.3947 v 2.47 c -0.5277,0.1571 -1.0942,0.2782 -1.7031,0.3706 -0.6128,0.0888 -1.2446,0.1331 -1.8998,0.1331 -1.2796,0 -2.4047,-0.1894 -3.376,-0.5721 -0.9672,-0.383 -1.7802,-0.9228 -2.4354,-1.6201 -0.6515,-0.6969 -1.1446,-1.5311 -1.472,-2.5024 -0.3278,-0.9709 -0.4932,-2.0467 -0.4932,-3.2195 0,-1.2048 0.177,-2.3212 0.5277,-3.3527 0.3508,-1.0314 0.8556,-1.9261 1.5183,-2.6798 0.6589,-0.7574 1.4837,-1.3498 2.4742,-1.7847 0.9904,-0.4312 2.1118,-0.653 3.3605,-0.6609 0.6394,0 1.2446,0.044 1.8186,0.1327 0.5706,0.0929 1.0867,0.2177 1.5457,0.3831 v 2.4335 c -0.6011,-0.189 -1.1638,-0.318 -1.684,-0.3946 -0.5165,-0.0767 -1.0251,-0.1128 -1.5224,-0.1128 z m 13.6845,4.3762 h 6.9831 v -6.5038 h 2.7749 v 15.7877 h -2.7749 v -6.8665 h -6.9831 v 6.8665 h -2.7745 v -15.7877 h 2.7745 z m 20.9064,6.8661 h 7.4304 v 2.4178 h -10.2049 v -15.7877 h 9.7962 v 2.4178 h -7.0217 v 4.086 h 6.0313 v 2.4174 h -6.0313 z m 22.9952,-6.032 c 1.0829,1.6156 1.9655,3.0463 2.6437,4.2954 h 0.0654 c -0.0884,-2.0513 -0.1346,-3.5462 -0.1346,-4.4848 v -7.1485 h 2.7745 v 15.7877 h -2.9019 l -4.9284,-7.2695 c -0.8672,-1.257 -1.7615,-2.7158 -2.6903,-4.3758 h -0.0654 c 0.0887,1.934 0.1349,3.4331 0.1349,4.4927 v 7.1526 h -2.7749 v -15.7877 h 2.902 z m 20.5676,3.9086 c 0,-0.3992 -0.0925,-0.7255 -0.2812,-0.9713 -0.189,-0.2496 -0.4431,-0.4511 -0.7672,-0.6082 -0.3236,-0.1613 -0.686,-0.2865 -1.0867,-0.3872 -0.4003,-0.0966 -0.8247,-0.1932 -1.2641,-0.2861 -0.5853,-0.1368 -1.148,-0.2939 -1.6799,-0.4792 -0.5319,-0.1853 -1.0022,-0.4432 -1.4066,-0.7699 -0.4049,-0.3262 -0.7281,-0.7412 -0.9672,-1.2449 -0.2428,-0.5037 -0.3624,-1.1323 -0.3624,-1.8901 0,-0.8341 0.1387,-1.5592 0.4203,-2.1798 0.2774,-0.6165 0.6589,-1.1284 1.1367,-1.5355 0.4815,-0.4026 1.0405,-0.7048 1.6881,-0.9063 0.6436,-0.2015 1.3679,-0.3023 2.1735,-0.3023 0.8052,0 1.6145,0.0805 2.4275,0.2455 0.8131,0.1654 1.5108,0.3789 2.1002,0.6368 v 2.4783 c -0.7823,-0.3225 -1.5337,-0.556 -2.2543,-0.7011 -0.7168,-0.1451 -1.3949,-0.2176 -2.0268,-0.2176 -0.9097,0 -1.6111,0.1733 -2.1043,0.5198 -0.4936,0.3466 -0.7401,0.8661 -0.7401,1.5593 0,0.4029 0.0808,0.7334 0.2432,0.9954 0.1616,0.2578 0.3774,0.4713 0.6548,0.6405 0.2774,0.1695 0.5977,0.3063 0.9596,0.4112 0.3583,0.1008 0.7402,0.1932 1.1447,0.2819 0.6397,0.141 1.2483,0.3064 1.8264,0.4917 0.5819,0.1812 1.0984,0.4394 1.5495,0.7699 0.4469,0.3341 0.8052,0.7615 1.0672,1.2934 0.2623,0.5319 0.3935,1.2127 0.3935,2.0389 0,0.8503 -0.1507,1.5874 -0.4514,2.208 -0.3004,0.6206 -0.7281,1.1364 -1.283,1.5435 -0.551,0.4029 -1.222,0.7051 -2.0118,0.9025 -0.7935,0.1977 -1.6569,0.2943 -2.597,0.2943 -0.8214,0 -1.6307,-0.0846 -2.4242,-0.2541 -0.7939,-0.1691 -1.4529,-0.4067 -1.981,-0.7131 v -2.4418 c 0.748,0.3383 1.4724,0.5841 2.1813,0.7375 0.7052,0.153 1.4375,0.2297 2.1889,0.2297 0.4357,0 0.8672,-0.0365 1.2874,-0.1132 0.4199,-0.0725 0.7977,-0.2014 1.1326,-0.3826 0.3353,-0.1812 0.6052,-0.427 0.8093,-0.7413 0.2045,-0.3105 0.3045,-0.6932 0.3045,-1.1525 z m 27.8627,0.5278 h -5.7189 l -1.4645,4.0134 h -2.9478 l 5.9963,-15.7877 h 2.528 l 5.9963,15.7877 h -2.9249 z m -2.8824,-7.9785 c -0.5398,1.6438 -1.0175,3.0222 -1.4336,4.1304 l -0.5128,1.4303 h 3.9387 l -0.5127,-1.4266 c -0.4162,-1.116 -0.8939,-2.494 -1.4337,-4.1341 z m 22.0547,3.5421 c 1.083,1.6156 1.9652,3.0463 2.6437,4.2954 h 0.0654 c -0.0883,-2.0513 -0.1345,-3.5462 -0.1345,-4.4848 v -7.1485 h 2.7745 v 15.7877 h -2.902 l -4.9287,-7.2695 c -0.8672,-1.257 -1.7611,-2.7158 -2.69,-4.3758 h -0.0654 c 0.0887,1.934 0.1346,3.4331 0.1346,4.4927 v 7.1526 h -2.7745 v -15.7877 h 2.9019 z m 13.7079,8.4498 v -15.7877 h 3.9962 c 0.3548,0 0.7134,0.012 1.0792,0.0361 0.3661,0.024 0.721,0.0564 1.0675,0.1049 0.347,0.0485 0.6782,0.1048 1.0018,0.1732 0.324,0.0643 0.6244,0.1451 0.8943,0.2418 0.8055,0.2661 1.5145,0.6285 2.1347,1.084 0.6168,0.4553 1.1333,0.995 1.5495,1.6157 0.4198,0.6206 0.736,1.3179 0.9517,2.0832 0.212,0.7657 0.3199,1.5998 0.3199,2.4944 0,0.8503 -0.0883,1.648 -0.2695,2.3896 -0.1812,0.7454 -0.4548,1.4224 -0.8247,2.0348 -0.3699,0.6168 -0.8326,1.1566 -1.3954,1.6242 -0.5627,0.4673 -1.2254,0.8499 -1.9922,1.1521 -0.6394,0.25 -1.3683,0.4395 -2.1776,0.5643 -0.8131,0.1248 -1.7303,0.1894 -2.7437,0.1894 z m 3.9154,-2.4178 c 1.6148,0 2.879,-0.2338 3.7883,-0.6969 0.8051,-0.4153 1.4145,-1.0235 1.8265,-1.8174 0.4123,-0.7939 0.6206,-1.8092 0.6206,-3.0463 0,-0.6447 -0.0692,-1.2251 -0.2041,-1.7449 -0.135,-0.5199 -0.3316,-0.9834 -0.5861,-1.3863 -0.2541,-0.4068 -0.5661,-0.7533 -0.9284,-1.0435 -0.3665,-0.2944 -0.7789,-0.5319 -1.2371,-0.7214 -0.4278,-0.1733 -0.9056,-0.2981 -1.4299,-0.3789 -0.5278,-0.0763 -1.1176,-0.1165 -1.7724,-0.1165 h -1.2183 v 10.9521 z m 37.2432,-9.1674 c 0,0.6853 -0.147,1.3097 -0.4394,1.8822 -0.2932,0.5679 -0.7789,1.0435 -1.4566,1.4224 v 0.0481 c 0.3774,0.133 0.7202,0.3022 1.0326,0.512 0.312,0.2093 0.5819,0.4552 0.8055,0.7412 0.2271,0.2902 0.4045,0.6127 0.5357,0.9751 0.127,0.3627 0.1924,0.7657 0.1924,1.213 0,0.3868 -0.0578,0.8018 -0.177,1.2412 -0.1158,0.4391 -0.3199,0.8665 -0.6131,1.2773 -0.2966,0.415 -0.6894,0.7939 -1.1792,1.1405 -0.489,0.3466 -1.1059,0.6206 -1.8535,0.8259 -0.1887,0.0485 -0.397,0.0887 -0.6165,0.1289 -0.2237,0.0406 -0.4703,0.0725 -0.7439,0.1007 -0.2699,0.0282 -0.5703,0.0485 -0.9018,0.0606 -0.3353,0.012 -0.7052,0.0161 -1.1213,0.0161 h -4.401 v -15.7877 h 5.2486 c 1.1217,0 2.0231,0.1169 2.7091,0.3545 0.5128,0.1733 0.956,0.3988 1.33,0.677 0.3774,0.2819 0.6897,0.5924 0.9326,0.9348 0.2466,0.3425 0.4236,0.7011 0.5431,1.0841 0.1158,0.3827 0.1737,0.7653 0.1737,1.1521 z m -8.1626,4.7187 v 4.4487 h 1.8077 c 0.4815,0 0.8976,-0.012 1.2446,-0.0402 0.3428,-0.0282 0.6435,-0.0725 0.8905,-0.1372 0.3853,-0.0846 0.7048,-0.2015 0.9593,-0.3462 0.2582,-0.1451 0.4665,-0.3105 0.6243,-0.4958 0.1579,-0.1853 0.2699,-0.3909 0.3391,-0.6165 0.0654,-0.2217 0.1,-0.4593 0.1,-0.7134 0,-0.4391 -0.1154,-0.8259 -0.3503,-1.1563 -0.2312,-0.3304 -0.5977,-0.5762 -1.0943,-0.7416 -0.2203,-0.0726 -0.4744,-0.1207 -0.771,-0.153 -0.2928,-0.0323 -0.6706,-0.0485 -1.1292,-0.0485 z m 2.4896,-2.4174 c 0.7518,0 1.3103,-0.0808 1.6802,-0.238 0.4124,-0.1811 0.7056,-0.4311 0.8826,-0.7495 0.1775,-0.3184 0.2662,-0.677 0.2662,-1.08 0,-0.4149 -0.1004,-0.7897 -0.3045,-1.116 -0.2041,-0.3263 -0.5477,-0.5684 -1.0367,-0.7255 -0.2045,-0.0643 -0.4395,-0.1086 -0.709,-0.1368 -0.2703,-0.0282 -0.6052,-0.0402 -1.0025,-0.0402 h -2.2659 v 4.086 z m 21.554,5.2705 h -5.719 l -1.4645,4.0134 h -2.9477 l 5.9963,-15.7877 h 2.5279 l 5.9963,15.7877 h -2.9248 z m -2.8824,-7.9785 c -0.5398,1.6438 -1.0176,3.0222 -1.4337,4.1304 l -0.5127,1.4303 h 3.9386 l -0.5127,-1.4266 c -0.4161,-1.116 -0.8939,-2.494 -1.4337,-4.1341 z m 18.7945,11.9919 h -2.7749 v -13.3699 h -4.8784 v -2.4178 h 12.5208 v 2.4178 h -4.8675 z M 309.8,108.3744 h 6.9834 v -6.5038 h 2.7745 v 15.7877 h -2.7745 v -6.8665 H 309.8 v 6.8665 h -2.7745 V 101.8706 H 309.8 Z m 24.9916,4.7427 c 0,-0.3992 -0.0925,-0.7255 -0.2812,-0.9713 -0.1891,-0.2496 -0.4432,-0.4511 -0.7672,-0.6082 -0.3237,-0.1613 -0.686,-0.2865 -1.0867,-0.3872 -0.4004,-0.0966 -0.8248,-0.1932 -1.2642,-0.2861 -0.5853,-0.1368 -1.148,-0.2939 -1.6799,-0.4792 -0.5319,-0.1853 -1.0021,-0.4432 -1.4066,-0.7699 -0.4048,-0.3262 -0.7281,-0.7412 -0.9672,-1.2449 -0.2428,-0.5037 -0.3623,-1.1323 -0.3623,-1.8901 0,-0.8341 0.1387,-1.5592 0.4198,-2.1798 0.2778,-0.6165 0.6594,-1.1284 1.1371,-1.5355 0.4816,-0.4026 1.0405,-0.7048 1.6882,-0.9063 0.6435,-0.2015 1.3679,-0.3023 2.1734,-0.3023 0.8052,0 1.6145,0.0805 2.4276,0.2455 0.8131,0.1654 1.5107,0.3789 2.1001,0.6368 v 2.4783 c -0.7822,-0.3225 -1.5336,-0.556 -2.2542,-0.7011 -0.7169,-0.1451 -1.395,-0.2176 -2.0269,-0.2176 -0.9096,0 -1.6111,0.1733 -2.1042,0.5198 -0.4936,0.3466 -0.7402,0.8661 -0.7402,1.5593 0,0.4029 0.0808,0.7334 0.2432,0.9954 0.1617,0.2578 0.3774,0.4713 0.6548,0.6405 0.2774,0.1695 0.5977,0.3063 0.9597,0.4112 0.3582,0.1008 0.7401,0.1932 1.1446,0.2819 0.6398,0.141 1.2484,0.3064 1.8265,0.4917 0.5819,0.1812 1.0984,0.4394 1.5495,0.7699 0.4469,0.3341 0.8051,0.7615 1.0671,1.2934 0.2624,0.5319 0.3936,1.2127 0.3936,2.0389 0,0.8503 -0.1507,1.5874 -0.4515,2.208 -0.3003,0.6206 -0.7281,1.1364 -1.2829,1.5435 -0.5511,0.4029 -1.222,0.7051 -2.0118,0.9025 -0.7935,0.1977 -1.6573,0.2943 -2.5971,0.2943 -0.8213,0 -1.6306,-0.0846 -2.4242,-0.2541 -0.7939,-0.1691 -1.4528,-0.4067 -1.9809,-0.7131 v -2.4418 c 0.7476,0.3383 1.4724,0.5841 2.1813,0.7375 0.7052,0.153 1.4374,0.2297 2.1889,0.2297 0.4356,0 0.8671,-0.0365 1.2874,-0.1132 0.4199,-0.0725 0.7977,-0.2014 1.1326,-0.3826 0.3353,-0.1812 0.6052,-0.427 0.8093,-0.7413 0.2045,-0.3105 0.3045,-0.6932 0.3045,-1.1525 z" />
  <g
     id="Layer1000">
    <path
       id="path4"
       style="fill:#e30016;fill-rule:evenodd"
       d="m 125.782,12.7493 c 0,-4.9303 -3.9969,-8.9276 -8.9276,-8.9276 -4.9306,0 -8.9276,3.9973 -8.9276,8.9276 0,4.9306 3.997,8.9275 8.9276,8.9275 4.9307,0 8.9276,-3.9969 8.9276,-8.9275 z" />
    <path
       id="path6"
       style="fill:#3a3a3a;fill-rule:evenodd"
       d="m 107.8565,28.9971 h 18.3168" />
    <path
       id="path8"
       style="fill:#3a3a3a;fill-rule:evenodd"
       d="m 107.8565,28.9971 h 18.3168 v 62.6908 h -18.3168 z" />
    <path
       id="path10"
       style="fill:#e30016;fill-rule:evenodd"
       d="m 210.829,12.7493 c 0,-4.9303 -3.9969,-8.9276 -8.9276,-8.9276 -4.9307,0 -8.9276,3.9973 -8.9276,8.9276 0,4.9306 3.9969,8.9275 8.9276,8.9275 4.9307,0 8.9276,-3.9969 8.9276,-8.9275 z" />
    <path
       id="path12"
       style="fill:#3a3a3a;fill-rule:evenodd"
       d="m 192.9035,28.9971 h 18.3168 v 62.6908 h -18.3168 z" />
    <path
       id="path14"
       style="fill:#3a3a3a;fill-rule:evenodd"
       d="m 192.9035,91.6879 h 18.3168" />
    <path
       id="path16"
       style="fill:#3a3a3a;fill-rule:evenodd"
       d="M 27.4707,22.1467 H 3.0373 V 3.3518 h 100.8979 c -4.0751,5.6065 -4.0789,13.1914 0,18.7949 H 46.2656 V 91.6879 H 27.4707 Z" />
    <path
       id="path18"
       style="fill:#3a3a3a;fill-rule:evenodd"
       d="m 102.612,91.6879 v 0 H 84.4746 L 76.3375,72.4231 V 54.3702 h 4.2288 c 1.3431,0 2.584,-0.7164 3.2553,-1.8795 0.6717,-1.163 0.6717,-2.5959 0,-3.759 -0.6713,-1.163 -1.9122,-1.8794 -3.2553,-1.8794 H 71.6388 V 91.6879 H 53.7836 V 28.9971 h 26.7827 c 9.4527,-0.0632 17.8451,6.0362 20.7038,15.0464 2.8587,9.0099 -0.7191,18.9946 -8.4792,24.3928 z" />
    <path
       id="path20"
       style="fill:#3a3a3a;fill-rule:evenodd"
       d="M 132.7861,28.9971 V 72.893 c 0.003,4.9881 1.9878,9.7703 5.5167,13.2951 3.5293,3.5248 8.2904,5.5032 13.2782,5.4998 v 0 h 7.0481 V 75.0446 h -3.759 c -0.9961,8e-4 -1.952,-0.3947 -2.6568,-1.0987 -0.7052,-0.7041 -1.1014,-1.6638 -1.1021,-2.6603 V 28.9971 Z" />
    <path
       id="path22"
       style="fill:#3a3a3a;fill-rule:evenodd"
       d="m 129.7737,22.1467 c 4.0751,-5.6061 4.0788,-13.1914 0,-18.7949 h 59.2085 c -4.0752,5.6065 -4.0789,13.1914 0,18.7949 z" />
    <path
       id="path24"
       style="fill:#3a3a3a;fill-rule:evenodd"
       d="M 162.3881,28.9971 V 72.893 c 0.003,4.9881 1.9878,9.7703 5.5167,13.2951 3.5293,3.5248 8.2904,5.5032 13.2782,5.4998 v 0 h 7.0481 V 75.0446 h -3.759 c -0.9961,8e-4 -1.952,-0.3947 -2.6568,-1.0987 -0.7052,-0.7041 -1.1014,-1.6638 -1.1022,-2.6603 V 28.9971 Z" />
    <path
       id="path26"
       style="fill:#3a3a3a;fill-rule:evenodd"
       d="m 214.8206,22.1467 c 4.0752,-5.6061 4.0789,-13.1914 0,-18.7949 h 141.5611 v 18.7949 z" />
    <path
       id="path28"
       style="fill:#3a3a3a;fill-rule:evenodd"
       d="M 219.1472,72.6953 V 28.9971 h 18.3251 v 42.2885 c 0,1.3431 0.7164,2.584 1.8795,3.2553 1.163,0.6717 2.5959,0.6717 3.7589,0 1.1631,-0.6713 1.8795,-1.9122 1.8795,-3.2553 V 28.9971 h 18.3251 v 43.6982 c -1.3089,10.9209 -10.4034,19.2452 -21.3969,19.585 -10.9939,0.3394 -20.7906,-8.7659 -22.7712,-19.585 z" />
    <path
       id="path30"
       style="fill:#3a3a3a;fill-rule:evenodd"
       d="m 313.6732,49.3993 c 0,-1.3427 0.7165,-2.5839 1.8795,-3.2552 1.1631,-0.6714 2.596,-0.6714 3.759,0 1.163,0.6713 1.8795,1.9125 1.8795,3.2552 v 42.2886 h 18.325 V 47.9897 c -1.1739,-7.6717 -6.2421,-14.186 -13.3902,-17.2101 -7.1481,-3.0237 -15.2919,-2.1671 -21.6153,2.3336 -6.338,-4.4796 -14.5457,-5.3517 -21.6837,-2.3043 -7.1375,3.0474 -12.1734,9.505 -13.3218,17.1808 v 43.6982 h 18.325 V 49.3993 c 0,-1.3427 0.7165,-2.5839 1.8795,-3.2552 1.163,-0.6714 2.596,-0.6714 3.759,0 1.163,0.6713 1.8795,1.9125 1.8795,3.2552 v 42.2886 h 18.325 z" />
  </g>
</svg>
